<svg xmlns="http://www.w3.org/2000/svg" width="256" height="256" viewBox="0 0 100 100"><rect width="100" height="100" rx="20" fill="#f5a623"></rect><path d="M37.53 62.24L37.53 62.24Q37.53 70.34 33.03 74.25Q28.54 78.17 21.16 78.17L21.16 78.17Q16.20 78.17 13.32 76.69Q10.45 75.20 10.45 71.87L10.45 71.87Q10.45 70.34 10.94 69.26Q11.44 68.18 12.06 67.46L12.06 67.46Q13.59 67.91 15.13 68.27Q16.66 68.63 18.45 68.63L18.45 68.63Q25.84 68.63 25.84 60.98L25.84 60.98L25.84 22.37Q26.64 22.19 28.18 21.92Q29.70 21.65 31.23 21.65L31.23 21.65Q34.47 21.65 36.00 22.82Q37.53 23.99 37.53 27.14L37.53 27.14L37.53 62.24ZM89.55 68.63L89.55 68.63Q89.55 70.70 88.83 72.09Q88.11 73.49 86.22 74.57L86.22 74.57Q83.61 76.19 79.61 77.27Q75.60 78.35 70.47 78.35L70.47 78.35Q65.79 78.35 62.02 77.31Q58.23 76.28 55.53 74.12Q52.83 71.96 51.39 68.63Q49.95 65.30 49.95 60.71L49.95 60.71L49.95 34.52Q50.67 34.25 52.07 34.02Q53.46 33.80 55.17 33.80L55.17 33.80Q58.32 33.80 59.85 34.93Q61.38 36.05 61.38 39.11L61.38 39.11L61.38 60.53Q61.38 65.21 63.77 67.23Q66.16 69.26 70.56 69.26L70.56 69.26Q73.35 69.26 75.29 68.72Q77.22 68.18 78.22 67.55L78.22 67.55L78.22 34.52Q78.94 34.25 80.33 34.02Q81.72 33.80 83.34 33.80L83.34 33.80Q86.58 33.80 88.07 34.93Q89.55 36.05 89.55 39.11L89.55 39.11L89.55 68.63Z" fill="#ffffff"></path></svg>